<svg width="122" height="220" viewBox="0 0 122 220" fill="none" xmlns="http://www.w3.org/2000/svg">
    <symbol id="logo-passive" viewBox="0 0 82 31">
        <path d="M29.614 15.0698L25.609 13.6202C24.0166 13.0404 22.2795 13.1854 20.7354 13.9101C19.1913 14.6832 18.0815 15.9878 17.5507 17.6306L16.4892 20.9646L15.4759 21.786V14.8282C15.4759 13.9101 15.9584 13.0404 16.7304 12.5089C16.7787 12.5089 16.7787 12.4606 16.827 12.4606C18.7571 10.5279 19.7704 7.82208 19.6256 5.11628L19.3361 1.44412C19.3361 1.20253 19.1431 1.00926 18.9018 1.00926C18.6606 0.96094 18.4676 1.10589 18.371 1.34748L16.827 5.74441C16.2479 7.38722 15.9584 9.07835 15.9584 10.8178V11.9291C15.0416 12.6539 14.5108 13.7169 14.5108 14.8765V15.8429L14.0283 15.3597C13.9318 11.7842 11.6156 8.59517 8.18968 7.48386L5.00499 6.42086C4.86023 6.37255 4.66722 6.42086 4.52246 6.5175C4.3777 6.61413 4.32945 6.80741 4.3777 7.00068L4.90849 9.41657C5.77704 13.2337 9.203 15.9878 13.2562 15.9878H13.3527L14.5108 17.1474V27.7774L13.5458 27.2942V26.2795C13.5458 23.9119 12.4359 21.641 10.5058 20.2398C8.52745 18.7419 5.9218 18.3071 3.60566 19.1285L1.33777 19.9016C1.14476 19.9499 1 20.1431 1 20.3364C1 20.5297 1.14476 20.723 1.33777 20.7713L1.86855 20.9646C4.32945 21.786 6.64559 23.0422 8.67221 24.685L12.7737 27.9706C12.822 27.9706 12.822 28.019 12.8702 28.019L14.5108 28.8404V30H15.4759V22.9939L17.213 21.6893C17.213 21.6893 17.2612 21.6893 17.2612 21.641C20.3012 18.597 24.3062 16.6159 28.6007 16.0844L29.5657 15.9878C29.807 15.9395 29.9517 15.7945 30 15.5529C29.9517 15.3114 29.8552 15.1181 29.614 15.0698Z" fill="#446E61"/>
        <path d="M46.707 26.9297C46.6068 27.5859 46.3789 28.1556 46.0234 28.6387C45.6771 29.1309 45.2533 29.5319 44.752 29.8418C44.2598 30.1608 43.7129 30.3978 43.1113 30.5527C42.5189 30.7077 41.9219 30.7852 41.3203 30.7852C40.8919 30.7852 40.4499 30.7305 39.9941 30.6211C39.5384 30.5117 39.0781 30.3932 38.6133 30.2656C38.1576 30.138 37.7064 30.0195 37.2598 29.9102C36.8223 29.8008 36.403 29.7461 36.002 29.7461C35.8105 29.7461 35.6055 29.7689 35.3867 29.8145C35.1771 29.86 34.9674 29.9238 34.7578 30.0059C34.5573 30.0879 34.3704 30.1882 34.1973 30.3066C34.0241 30.4342 33.8874 30.5755 33.7871 30.7305L33.5684 30.6211C33.6048 30.2383 33.7005 29.8874 33.8555 29.5684C34.0195 29.2493 34.2246 28.9714 34.4707 28.7344C34.7259 28.4974 35.013 28.3105 35.332 28.1738C35.6602 28.0462 36.0156 27.9824 36.3984 27.9824C36.4896 27.9824 36.5762 27.9824 36.6582 27.9824C36.7493 27.9824 36.8405 27.987 36.9316 27.9961C36.5488 27.0846 36.2298 26.0866 35.9746 25.002C35.7285 23.9082 35.5326 22.7962 35.3867 21.666C35.2409 20.5267 35.1361 19.3965 35.0723 18.2754C35.0176 17.1543 34.9902 16.1061 34.9902 15.1309C34.9902 14.8027 34.9948 14.4199 35.0039 13.9824C35.0221 13.5449 35.054 13.0846 35.0996 12.6016C35.1452 12.1094 35.209 11.6172 35.291 11.125C35.3822 10.6328 35.5052 10.168 35.6602 9.73047C35.8151 9.29297 36.0065 8.90104 36.2344 8.55469C36.4622 8.20833 36.7402 7.93945 37.0684 7.74805C37.2415 7.64779 37.4193 7.55664 37.6016 7.47461C37.793 7.39258 37.9889 7.35156 38.1895 7.35156C38.3171 7.35156 38.4264 7.38346 38.5176 7.44727C38.6178 7.50195 38.668 7.60221 38.668 7.74805C38.668 7.83008 38.6543 7.90755 38.627 7.98047C38.6087 8.04427 38.5859 8.11263 38.5586 8.18555C38.4128 8.51367 38.2624 8.83268 38.1074 9.14258C37.9616 9.45247 37.8385 9.77148 37.7383 10.0996C37.5013 10.8926 37.3053 11.7539 37.1504 12.6836C37.0046 13.6133 36.8952 14.584 36.8223 15.5957C36.7493 16.6074 36.7083 17.651 36.6992 18.7266C36.6901 19.793 36.7083 20.8594 36.7539 21.9258C36.8086 22.9831 36.8815 24.0312 36.9727 25.0703C37.0638 26.1003 37.1732 27.0892 37.3008 28.0371C37.6836 28.0918 38.071 28.1602 38.4629 28.2422C38.8639 28.3333 39.265 28.4199 39.666 28.502C40.0762 28.5931 40.4909 28.6706 40.9102 28.7344C41.3294 28.7982 41.7578 28.8301 42.1953 28.8301C42.6055 28.8301 43.0156 28.7936 43.4258 28.7207C43.8451 28.6569 44.2415 28.5475 44.6152 28.3926C44.998 28.2376 45.349 28.0326 45.668 27.7773C45.987 27.5221 46.2559 27.2077 46.4746 26.834L46.707 26.9297ZM47.0488 14.9668C47.0488 15.1491 47.0078 15.3314 46.9258 15.5137C46.8438 15.696 46.7344 15.86 46.5977 16.0059C46.4701 16.1426 46.3197 16.2565 46.1465 16.3477C45.9733 16.4388 45.7956 16.4844 45.6133 16.4844C45.3763 16.4844 45.1849 16.4069 45.0391 16.252C44.9023 16.097 44.834 15.901 44.834 15.6641C44.834 15.4818 44.875 15.304 44.957 15.1309C45.0391 14.9486 45.1439 14.7891 45.2715 14.6523C45.4082 14.5156 45.5586 14.4062 45.7227 14.3242C45.8958 14.2331 46.0736 14.1875 46.2559 14.1875C46.4928 14.1875 46.6842 14.2604 46.8301 14.4062C46.9759 14.5521 47.0488 14.7389 47.0488 14.9668ZM50.877 24.0449C50.6673 24.3913 50.4167 24.7103 50.125 25.002C49.8424 25.2845 49.528 25.5352 49.1816 25.7539C48.8444 25.9635 48.4798 26.1276 48.0879 26.2461C47.7051 26.3646 47.3086 26.4238 46.8984 26.4238C46.388 26.4238 45.9323 26.3372 45.5312 26.1641C45.1393 25.9909 44.8066 25.7539 44.5332 25.4531C44.2689 25.1432 44.0638 24.7832 43.918 24.373C43.7812 23.9538 43.7129 23.498 43.7129 23.0059C43.7129 22.4772 43.7904 21.9759 43.9453 21.502C44.1003 21.028 44.3145 20.5859 44.5879 20.1758C44.8613 19.7565 45.1803 19.3737 45.5449 19.0273C45.9186 18.681 46.3151 18.3711 46.7344 18.0977L46.8984 18.2207C46.4518 18.7493 46.0872 19.3418 45.8047 19.998C45.5312 20.6543 45.3945 21.3379 45.3945 22.0488C45.3945 22.459 45.4401 22.8555 45.5312 23.2383C45.6315 23.612 45.7819 23.9447 45.9824 24.2363C46.1921 24.528 46.4564 24.7604 46.7754 24.9336C47.0944 25.1068 47.4818 25.1934 47.9375 25.1934C48.4753 25.1934 48.9857 25.0794 49.4688 24.8516C49.9609 24.6237 50.403 24.3366 50.7949 23.9902L50.877 24.0449ZM62.0195 24.0449C61.8464 24.373 61.6595 24.6875 61.459 24.9883C61.2676 25.2891 61.0488 25.5534 60.8027 25.7812C60.5566 26.0091 60.2786 26.1914 59.9688 26.3281C59.6589 26.4648 59.3034 26.5332 58.9023 26.5332C58.4466 26.5332 58.0547 26.4193 57.7266 26.1914C57.3984 25.9727 57.1159 25.681 56.8789 25.3164C56.651 24.9427 56.4642 24.5189 56.3184 24.0449C56.1816 23.571 56.0677 23.0879 55.9766 22.5957C55.8854 22.1035 55.8171 21.6204 55.7715 21.1465C55.7259 20.6634 55.6849 20.2305 55.6484 19.8477C55.4753 19.9844 55.2656 20.2487 55.0195 20.6406C54.7734 21.0234 54.5228 21.4746 54.2676 21.9941C54.0124 22.5137 53.7663 23.0788 53.5293 23.6895C53.3014 24.3001 53.1146 24.9017 52.9688 25.4941C52.9414 25.6217 52.8958 25.7539 52.832 25.8906C52.7773 26.0273 52.7044 26.1504 52.6133 26.2598C52.5312 26.3783 52.431 26.474 52.3125 26.5469C52.194 26.6289 52.0618 26.6699 51.916 26.6699C51.679 26.6699 51.5059 26.5879 51.3965 26.4238C51.2962 26.2598 51.2233 26.0729 51.1777 25.8633C50.9134 24.7057 50.7266 23.5983 50.6172 22.541C50.5169 21.4837 50.4668 20.4264 50.4668 19.3691C50.4668 19.1139 50.5078 18.8952 50.5898 18.7129C50.681 18.5215 50.7995 18.3665 50.9453 18.248C51.0911 18.1204 51.2643 18.0293 51.4648 17.9746C51.6654 17.9108 51.875 17.8789 52.0938 17.8789C52.1211 17.8789 52.1621 17.8789 52.2168 17.8789C52.2806 17.8789 52.3398 17.888 52.3945 17.9062C52.4492 17.9154 52.4948 17.9336 52.5312 17.9609C52.5677 17.9883 52.5814 18.0247 52.5723 18.0703C52.3353 19.2643 52.2214 20.4811 52.2305 21.7207C52.2396 22.9512 52.3034 24.1361 52.4219 25.2754C52.5221 24.8197 52.668 24.3047 52.8594 23.7305C53.0599 23.1471 53.2878 22.5638 53.543 21.9805C53.8073 21.388 54.0898 20.8275 54.3906 20.2988C54.7005 19.7611 55.015 19.3099 55.334 18.9453C55.4889 18.7721 55.6439 18.6263 55.7988 18.5078C55.9629 18.3802 56.1634 18.3164 56.4004 18.3164C56.5371 18.3164 56.651 18.3438 56.7422 18.3984C56.8333 18.4531 56.9062 18.5215 56.9609 18.6035C57.0247 18.6855 57.0703 18.7812 57.0977 18.8906C57.1341 18.9909 57.1615 19.0911 57.1797 19.1914C57.2253 19.4557 57.2708 19.7975 57.3164 20.2168C57.362 20.6361 57.4167 21.0827 57.4805 21.5566C57.5534 22.0306 57.64 22.5091 57.7402 22.9922C57.8405 23.4661 57.9681 23.8991 58.123 24.291C58.278 24.6738 58.4648 24.9883 58.6836 25.2344C58.9023 25.4805 59.1621 25.6035 59.4629 25.6035C59.709 25.6035 59.946 25.5579 60.1738 25.4668C60.4108 25.3665 60.6341 25.2435 60.8438 25.0977C61.0534 24.9427 61.2493 24.7695 61.4316 24.5781C61.6139 24.3776 61.778 24.1816 61.9238 23.9902L62.0195 24.0449ZM70.0723 24.0449C69.8353 24.3913 69.5482 24.7148 69.2109 25.0156C68.8828 25.3164 68.5182 25.5762 68.1172 25.7949C67.7253 26.0137 67.3105 26.1868 66.873 26.3145C66.4447 26.4421 66.0117 26.5059 65.5742 26.5059C64.9544 26.5059 64.3757 26.4238 63.8379 26.2598C63.3001 26.1048 62.8307 25.8633 62.4297 25.5352C62.0286 25.207 61.7142 24.7969 61.4863 24.3047C61.2585 23.8034 61.1445 23.2201 61.1445 22.5547C61.1445 21.8984 61.263 21.2878 61.5 20.7227C61.7461 20.1484 62.0788 19.6517 62.498 19.2324C62.9264 18.804 63.4277 18.4668 64.002 18.2207C64.5762 17.9746 65.1914 17.8516 65.8477 17.8516C66.1576 17.8516 66.4447 17.8971 66.709 17.9883C66.9824 18.0703 67.2194 18.1979 67.4199 18.3711C67.6204 18.5352 67.7754 18.7402 67.8848 18.9863C68.0033 19.2324 68.0625 19.515 68.0625 19.834C68.0625 20.2168 67.985 20.554 67.8301 20.8457C67.6751 21.1374 67.4701 21.3926 67.2148 21.6113C66.9596 21.8301 66.668 22.0124 66.3398 22.1582C66.0208 22.304 65.6836 22.4225 65.3281 22.5137C64.9818 22.6048 64.6354 22.6732 64.2891 22.7188C63.9518 22.7552 63.6419 22.7734 63.3594 22.7734H63.0312C63.1497 23.6029 63.4779 24.2363 64.0156 24.6738C64.5534 25.1113 65.2962 25.3301 66.2441 25.3301C66.9186 25.3301 67.5749 25.2116 68.2129 24.9746C68.86 24.7376 69.4434 24.4095 69.9629 23.9902L70.0723 24.0449ZM62.9902 22.3633H63.332C63.6602 22.3633 63.9974 22.3132 64.3438 22.2129C64.6901 22.1035 65 21.9486 65.2734 21.748C65.556 21.5384 65.7884 21.2832 65.9707 20.9824C66.153 20.6816 66.2441 20.3398 66.2441 19.957C66.2441 19.5833 66.1621 19.2734 65.998 19.0273C65.8431 18.7812 65.5697 18.6582 65.1777 18.6582C64.7767 18.6582 64.4349 18.7812 64.1523 19.0273C63.8789 19.2643 63.6556 19.5605 63.4824 19.916C63.3092 20.2624 63.1816 20.6315 63.0996 21.0234C63.0267 21.4062 62.9902 21.748 62.9902 22.0488V22.3633Z" fill="#446E61"/>
    </symbol>

    <symbol id="logo-active" viewBox="0 0 72 31">
        <path d="M29.114 15.0698L25.109 13.6202C23.5166 13.0404 21.7795 13.1854 20.2354 13.9101C18.6913 14.6832 17.5815 15.9878 17.0507 17.6306L15.9892 20.9646L14.9759 21.786V14.8282C14.9759 13.9101 15.4584 13.0404 16.2304 12.5089C16.2787 12.5089 16.2787 12.4606 16.327 12.4606C18.2571 10.5279 19.2704 7.82208 19.1256 5.11628L18.8361 1.44412C18.8361 1.20253 18.6431 1.00926 18.4018 1.00926C18.1606 0.96094 17.9676 1.10589 17.871 1.34748L16.327 5.74441C15.7479 7.38722 15.4584 9.07835 15.4584 10.8178V11.9291C14.5416 12.6539 14.0108 13.7169 14.0108 14.8765V15.8429L13.5283 15.3597C13.4318 11.7842 11.1156 8.59517 7.68968 7.48386L4.50499 6.42086C4.36023 6.37255 4.16722 6.42086 4.02246 6.5175C3.8777 6.61413 3.82945 6.80741 3.8777 7.00068L4.40849 9.41657C5.27704 13.2337 8.703 15.9878 12.7562 15.9878H12.8527L14.0108 17.1474V27.7774L13.0458 27.2942V26.2795C13.0458 23.9119 11.9359 21.641 10.0058 20.2398C8.02745 18.7419 5.4218 18.3071 3.10566 19.1285L0.83777 19.9016C0.644759 19.9499 0.5 20.1431 0.5 20.3364C0.5 20.5297 0.644759 20.723 0.83777 20.7713L1.36855 20.9646C3.82945 21.786 6.14559 23.0422 8.17221 24.685L12.2737 27.9706C12.322 27.9706 12.322 28.019 12.3702 28.019L14.0108 28.8404V30H14.9759V22.9939L16.713 21.6893C16.713 21.6893 16.7612 21.6893 16.7612 21.641C19.8012 18.597 23.8062 16.6159 28.1007 16.0844L29.0657 15.9878C29.307 15.9395 29.4517 15.7945 29.5 15.5529C29.4517 15.3114 29.3552 15.1181 29.114 15.0698Z" fill="#67446E"/>
        <path d="M46.707 26.9297C46.6068 27.5859 46.3789 28.1556 46.0234 28.6387C45.6771 29.1309 45.2533 29.5319 44.752 29.8418C44.2598 30.1608 43.7129 30.3978 43.1113 30.5527C42.5189 30.7077 41.9219 30.7852 41.3203 30.7852C40.8919 30.7852 40.4499 30.7305 39.9941 30.6211C39.5384 30.5117 39.0781 30.3932 38.6133 30.2656C38.1576 30.138 37.7064 30.0195 37.2598 29.9102C36.8223 29.8008 36.403 29.7461 36.002 29.7461C35.8105 29.7461 35.6055 29.7689 35.3867 29.8145C35.1771 29.86 34.9674 29.9238 34.7578 30.0059C34.5573 30.0879 34.3704 30.1882 34.1973 30.3066C34.0241 30.4342 33.8874 30.5755 33.7871 30.7305L33.5684 30.6211C33.6048 30.2383 33.7005 29.8874 33.8555 29.5684C34.0195 29.2493 34.2246 28.9714 34.4707 28.7344C34.7259 28.4974 35.013 28.3105 35.332 28.1738C35.6602 28.0462 36.0156 27.9824 36.3984 27.9824C36.4896 27.9824 36.5762 27.9824 36.6582 27.9824C36.7493 27.9824 36.8405 27.987 36.9316 27.9961C36.5488 27.0846 36.2298 26.0866 35.9746 25.002C35.7285 23.9082 35.5326 22.7962 35.3867 21.666C35.2409 20.5267 35.1361 19.3965 35.0723 18.2754C35.0176 17.1543 34.9902 16.1061 34.9902 15.1309C34.9902 14.8027 34.9948 14.4199 35.0039 13.9824C35.0221 13.5449 35.054 13.0846 35.0996 12.6016C35.1452 12.1094 35.209 11.6172 35.291 11.125C35.3822 10.6328 35.5052 10.168 35.6602 9.73047C35.8151 9.29297 36.0065 8.90104 36.2344 8.55469C36.4622 8.20833 36.7402 7.93945 37.0684 7.74805C37.2415 7.64779 37.4193 7.55664 37.6016 7.47461C37.793 7.39258 37.9889 7.35156 38.1895 7.35156C38.3171 7.35156 38.4264 7.38346 38.5176 7.44727C38.6178 7.50195 38.668 7.60221 38.668 7.74805C38.668 7.83008 38.6543 7.90755 38.627 7.98047C38.6087 8.04427 38.5859 8.11263 38.5586 8.18555C38.4128 8.51367 38.2624 8.83268 38.1074 9.14258C37.9616 9.45247 37.8385 9.77148 37.7383 10.0996C37.5013 10.8926 37.3053 11.7539 37.1504 12.6836C37.0046 13.6133 36.8952 14.584 36.8223 15.5957C36.7493 16.6074 36.7083 17.651 36.6992 18.7266C36.6901 19.793 36.7083 20.8594 36.7539 21.9258C36.8086 22.9831 36.8815 24.0312 36.9727 25.0703C37.0638 26.1003 37.1732 27.0892 37.3008 28.0371C37.6836 28.0918 38.071 28.1602 38.4629 28.2422C38.8639 28.3333 39.265 28.4199 39.666 28.502C40.0762 28.5931 40.4909 28.6706 40.9102 28.7344C41.3294 28.7982 41.7578 28.8301 42.1953 28.8301C42.6055 28.8301 43.0156 28.7936 43.4258 28.7207C43.8451 28.6569 44.2415 28.5475 44.6152 28.3926C44.998 28.2376 45.349 28.0326 45.668 27.7773C45.987 27.5221 46.2559 27.2077 46.4746 26.834L46.707 26.9297ZM47.0488 14.9668C47.0488 15.1491 47.0078 15.3314 46.9258 15.5137C46.8438 15.696 46.7344 15.86 46.5977 16.0059C46.4701 16.1426 46.3197 16.2565 46.1465 16.3477C45.9733 16.4388 45.7956 16.4844 45.6133 16.4844C45.3763 16.4844 45.1849 16.4069 45.0391 16.252C44.9023 16.097 44.834 15.901 44.834 15.6641C44.834 15.4818 44.875 15.304 44.957 15.1309C45.0391 14.9486 45.1439 14.7891 45.2715 14.6523C45.4082 14.5156 45.5586 14.4062 45.7227 14.3242C45.8958 14.2331 46.0736 14.1875 46.2559 14.1875C46.4928 14.1875 46.6842 14.2604 46.8301 14.4062C46.9759 14.5521 47.0488 14.7389 47.0488 14.9668ZM50.877 24.0449C50.6673 24.3913 50.4167 24.7103 50.125 25.002C49.8424 25.2845 49.528 25.5352 49.1816 25.7539C48.8444 25.9635 48.4798 26.1276 48.0879 26.2461C47.7051 26.3646 47.3086 26.4238 46.8984 26.4238C46.388 26.4238 45.9323 26.3372 45.5312 26.1641C45.1393 25.9909 44.8066 25.7539 44.5332 25.4531C44.2689 25.1432 44.0638 24.7832 43.918 24.373C43.7812 23.9538 43.7129 23.498 43.7129 23.0059C43.7129 22.4772 43.7904 21.9759 43.9453 21.502C44.1003 21.028 44.3145 20.5859 44.5879 20.1758C44.8613 19.7565 45.1803 19.3737 45.5449 19.0273C45.9186 18.681 46.3151 18.3711 46.7344 18.0977L46.8984 18.2207C46.4518 18.7493 46.0872 19.3418 45.8047 19.998C45.5312 20.6543 45.3945 21.3379 45.3945 22.0488C45.3945 22.459 45.4401 22.8555 45.5312 23.2383C45.6315 23.612 45.7819 23.9447 45.9824 24.2363C46.1921 24.528 46.4564 24.7604 46.7754 24.9336C47.0944 25.1068 47.4818 25.1934 47.9375 25.1934C48.4753 25.1934 48.9857 25.0794 49.4688 24.8516C49.9609 24.6237 50.403 24.3366 50.7949 23.9902L50.877 24.0449ZM62.0195 24.0449C61.8464 24.373 61.6595 24.6875 61.459 24.9883C61.2676 25.2891 61.0488 25.5534 60.8027 25.7812C60.5566 26.0091 60.2786 26.1914 59.9688 26.3281C59.6589 26.4648 59.3034 26.5332 58.9023 26.5332C58.4466 26.5332 58.0547 26.4193 57.7266 26.1914C57.3984 25.9727 57.1159 25.681 56.8789 25.3164C56.651 24.9427 56.4642 24.5189 56.3184 24.0449C56.1816 23.571 56.0677 23.0879 55.9766 22.5957C55.8854 22.1035 55.8171 21.6204 55.7715 21.1465C55.7259 20.6634 55.6849 20.2305 55.6484 19.8477C55.4753 19.9844 55.2656 20.2487 55.0195 20.6406C54.7734 21.0234 54.5228 21.4746 54.2676 21.9941C54.0124 22.5137 53.7663 23.0788 53.5293 23.6895C53.3014 24.3001 53.1146 24.9017 52.9688 25.4941C52.9414 25.6217 52.8958 25.7539 52.832 25.8906C52.7773 26.0273 52.7044 26.1504 52.6133 26.2598C52.5312 26.3783 52.431 26.474 52.3125 26.5469C52.194 26.6289 52.0618 26.6699 51.916 26.6699C51.679 26.6699 51.5059 26.5879 51.3965 26.4238C51.2962 26.2598 51.2233 26.0729 51.1777 25.8633C50.9134 24.7057 50.7266 23.5983 50.6172 22.541C50.5169 21.4837 50.4668 20.4264 50.4668 19.3691C50.4668 19.1139 50.5078 18.8952 50.5898 18.7129C50.681 18.5215 50.7995 18.3665 50.9453 18.248C51.0911 18.1204 51.2643 18.0293 51.4648 17.9746C51.6654 17.9108 51.875 17.8789 52.0938 17.8789C52.1211 17.8789 52.1621 17.8789 52.2168 17.8789C52.2806 17.8789 52.3398 17.888 52.3945 17.9062C52.4492 17.9154 52.4948 17.9336 52.5312 17.9609C52.5677 17.9883 52.5814 18.0247 52.5723 18.0703C52.3353 19.2643 52.2214 20.4811 52.2305 21.7207C52.2396 22.9512 52.3034 24.1361 52.4219 25.2754C52.5221 24.8197 52.668 24.3047 52.8594 23.7305C53.0599 23.1471 53.2878 22.5638 53.543 21.9805C53.8073 21.388 54.0898 20.8275 54.3906 20.2988C54.7005 19.7611 55.015 19.3099 55.334 18.9453C55.4889 18.7721 55.6439 18.6263 55.7988 18.5078C55.9629 18.3802 56.1634 18.3164 56.4004 18.3164C56.5371 18.3164 56.651 18.3438 56.7422 18.3984C56.8333 18.4531 56.9062 18.5215 56.9609 18.6035C57.0247 18.6855 57.0703 18.7812 57.0977 18.8906C57.1341 18.9909 57.1615 19.0911 57.1797 19.1914C57.2253 19.4557 57.2708 19.7975 57.3164 20.2168C57.362 20.6361 57.4167 21.0827 57.4805 21.5566C57.5534 22.0306 57.64 22.5091 57.7402 22.9922C57.8405 23.4661 57.9681 23.8991 58.123 24.291C58.278 24.6738 58.4648 24.9883 58.6836 25.2344C58.9023 25.4805 59.1621 25.6035 59.4629 25.6035C59.709 25.6035 59.946 25.5579 60.1738 25.4668C60.4108 25.3665 60.6341 25.2435 60.8438 25.0977C61.0534 24.9427 61.2493 24.7695 61.4316 24.5781C61.6139 24.3776 61.778 24.1816 61.9238 23.9902L62.0195 24.0449ZM70.0723 24.0449C69.8353 24.3913 69.5482 24.7148 69.2109 25.0156C68.8828 25.3164 68.5182 25.5762 68.1172 25.7949C67.7253 26.0137 67.3105 26.1868 66.873 26.3145C66.4447 26.4421 66.0117 26.5059 65.5742 26.5059C64.9544 26.5059 64.3757 26.4238 63.8379 26.2598C63.3001 26.1048 62.8307 25.8633 62.4297 25.5352C62.0286 25.207 61.7142 24.7969 61.4863 24.3047C61.2585 23.8034 61.1445 23.2201 61.1445 22.5547C61.1445 21.8984 61.263 21.2878 61.5 20.7227C61.7461 20.1484 62.0788 19.6517 62.498 19.2324C62.9264 18.804 63.4277 18.4668 64.002 18.2207C64.5762 17.9746 65.1914 17.8516 65.8477 17.8516C66.1576 17.8516 66.4447 17.8971 66.709 17.9883C66.9824 18.0703 67.2194 18.1979 67.4199 18.3711C67.6204 18.5352 67.7754 18.7402 67.8848 18.9863C68.0033 19.2324 68.0625 19.515 68.0625 19.834C68.0625 20.2168 67.985 20.554 67.8301 20.8457C67.6751 21.1374 67.4701 21.3926 67.2148 21.6113C66.9596 21.8301 66.668 22.0124 66.3398 22.1582C66.0208 22.304 65.6836 22.4225 65.3281 22.5137C64.9818 22.6048 64.6354 22.6732 64.2891 22.7188C63.9518 22.7552 63.6419 22.7734 63.3594 22.7734H63.0312C63.1497 23.6029 63.4779 24.2363 64.0156 24.6738C64.5534 25.1113 65.2962 25.3301 66.2441 25.3301C66.9186 25.3301 67.5749 25.2116 68.2129 24.9746C68.86 24.7376 69.4434 24.4095 69.9629 23.9902L70.0723 24.0449ZM62.9902 22.3633H63.332C63.6602 22.3633 63.9974 22.3132 64.3438 22.2129C64.6901 22.1035 65 21.9486 65.2734 21.748C65.556 21.5384 65.7884 21.2832 65.9707 20.9824C66.153 20.6816 66.2441 20.3398 66.2441 19.957C66.2441 19.5833 66.1621 19.2734 65.998 19.0273C65.8431 18.7812 65.5697 18.6582 65.1777 18.6582C64.7767 18.6582 64.4349 18.7812 64.1523 19.0273C63.8789 19.2643 63.6556 19.5605 63.4824 19.916C63.3092 20.2624 63.1816 20.6315 63.0996 21.0234C63.0267 21.4062 62.9902 21.748 62.9902 22.0488V22.3633Z" fill="#67446E"/>
    </symbol>

    <symbol id="logo-primary" viewBox="0 0 72 31">
        <path d="M29.114 15.0698L25.109 13.6202C23.5166 13.0404 21.7795 13.1854 20.2354 13.9101C18.6913 14.6832 17.5815 15.9878 17.0507 17.6306L15.9892 20.9646L14.9759 21.786V14.8282C14.9759 13.9101 15.4584 13.0404 16.2304 12.5089C16.2787 12.5089 16.2787 12.4606 16.327 12.4606C18.2571 10.5279 19.2704 7.82208 19.1256 5.11628L18.8361 1.44412C18.8361 1.20253 18.6431 1.00926 18.4018 1.00926C18.1606 0.96094 17.9676 1.10589 17.871 1.34748L16.327 5.74441C15.7479 7.38722 15.4584 9.07835 15.4584 10.8178V11.9291C14.5416 12.6539 14.0108 13.7169 14.0108 14.8765V15.8429L13.5283 15.3597C13.4318 11.7842 11.1156 8.59517 7.68968 7.48386L4.50499 6.42086C4.36023 6.37255 4.16722 6.42086 4.02246 6.5175C3.8777 6.61413 3.82945 6.80741 3.8777 7.00068L4.40849 9.41657C5.27704 13.2337 8.703 15.9878 12.7562 15.9878H12.8527L14.0108 17.1474V27.7774L13.0458 27.2942V26.2795C13.0458 23.9119 11.9359 21.641 10.0058 20.2398C8.02745 18.7419 5.4218 18.3071 3.10566 19.1285L0.83777 19.9016C0.644759 19.9499 0.5 20.1431 0.5 20.3364C0.5 20.5297 0.644759 20.723 0.83777 20.7713L1.36855 20.9646C3.82945 21.786 6.14559 23.0422 8.17221 24.685L12.2737 27.9706C12.322 27.9706 12.322 28.019 12.3702 28.019L14.0108 28.8404V30H14.9759V22.9939L16.713 21.6893C16.713 21.6893 16.7612 21.6893 16.7612 21.641C19.8012 18.597 23.8062 16.6159 28.1007 16.0844L29.0657 15.9878C29.307 15.9395 29.4517 15.7945 29.5 15.5529C29.4517 15.3114 29.3552 15.1181 29.114 15.0698Z" fill="#111213"/>
        <path d="M46.707 26.9297C46.6068 27.5859 46.3789 28.1556 46.0234 28.6387C45.6771 29.1309 45.2533 29.5319 44.752 29.8418C44.2598 30.1608 43.7129 30.3978 43.1113 30.5527C42.5189 30.7077 41.9219 30.7852 41.3203 30.7852C40.8919 30.7852 40.4499 30.7305 39.9941 30.6211C39.5384 30.5117 39.0781 30.3932 38.6133 30.2656C38.1576 30.138 37.7064 30.0195 37.2598 29.9102C36.8223 29.8008 36.403 29.7461 36.002 29.7461C35.8105 29.7461 35.6055 29.7689 35.3867 29.8145C35.1771 29.86 34.9674 29.9238 34.7578 30.0059C34.5573 30.0879 34.3704 30.1882 34.1973 30.3066C34.0241 30.4342 33.8874 30.5755 33.7871 30.7305L33.5684 30.6211C33.6048 30.2383 33.7005 29.8874 33.8555 29.5684C34.0195 29.2493 34.2246 28.9714 34.4707 28.7344C34.7259 28.4974 35.013 28.3105 35.332 28.1738C35.6602 28.0462 36.0156 27.9824 36.3984 27.9824C36.4896 27.9824 36.5762 27.9824 36.6582 27.9824C36.7493 27.9824 36.8405 27.987 36.9316 27.9961C36.5488 27.0846 36.2298 26.0866 35.9746 25.002C35.7285 23.9082 35.5326 22.7962 35.3867 21.666C35.2409 20.5267 35.1361 19.3965 35.0723 18.2754C35.0176 17.1543 34.9902 16.1061 34.9902 15.1309C34.9902 14.8027 34.9948 14.4199 35.0039 13.9824C35.0221 13.5449 35.054 13.0846 35.0996 12.6016C35.1452 12.1094 35.209 11.6172 35.291 11.125C35.3822 10.6328 35.5052 10.168 35.6602 9.73047C35.8151 9.29297 36.0065 8.90104 36.2344 8.55469C36.4622 8.20833 36.7402 7.93945 37.0684 7.74805C37.2415 7.64779 37.4193 7.55664 37.6016 7.47461C37.793 7.39258 37.9889 7.35156 38.1895 7.35156C38.3171 7.35156 38.4264 7.38346 38.5176 7.44727C38.6178 7.50195 38.668 7.60221 38.668 7.74805C38.668 7.83008 38.6543 7.90755 38.627 7.98047C38.6087 8.04427 38.5859 8.11263 38.5586 8.18555C38.4128 8.51367 38.2624 8.83268 38.1074 9.14258C37.9616 9.45247 37.8385 9.77148 37.7383 10.0996C37.5013 10.8926 37.3053 11.7539 37.1504 12.6836C37.0046 13.6133 36.8952 14.584 36.8223 15.5957C36.7493 16.6074 36.7083 17.651 36.6992 18.7266C36.6901 19.793 36.7083 20.8594 36.7539 21.9258C36.8086 22.9831 36.8815 24.0312 36.9727 25.0703C37.0638 26.1003 37.1732 27.0892 37.3008 28.0371C37.6836 28.0918 38.071 28.1602 38.4629 28.2422C38.8639 28.3333 39.265 28.4199 39.666 28.502C40.0762 28.5931 40.4909 28.6706 40.9102 28.7344C41.3294 28.7982 41.7578 28.8301 42.1953 28.8301C42.6055 28.8301 43.0156 28.7936 43.4258 28.7207C43.8451 28.6569 44.2415 28.5475 44.6152 28.3926C44.998 28.2376 45.349 28.0326 45.668 27.7773C45.987 27.5221 46.2559 27.2077 46.4746 26.834L46.707 26.9297ZM47.0488 14.9668C47.0488 15.1491 47.0078 15.3314 46.9258 15.5137C46.8438 15.696 46.7344 15.86 46.5977 16.0059C46.4701 16.1426 46.3197 16.2565 46.1465 16.3477C45.9733 16.4388 45.7956 16.4844 45.6133 16.4844C45.3763 16.4844 45.1849 16.4069 45.0391 16.252C44.9023 16.097 44.834 15.901 44.834 15.6641C44.834 15.4818 44.875 15.304 44.957 15.1309C45.0391 14.9486 45.1439 14.7891 45.2715 14.6523C45.4082 14.5156 45.5586 14.4062 45.7227 14.3242C45.8958 14.2331 46.0736 14.1875 46.2559 14.1875C46.4928 14.1875 46.6842 14.2604 46.8301 14.4062C46.9759 14.5521 47.0488 14.7389 47.0488 14.9668ZM50.877 24.0449C50.6673 24.3913 50.4167 24.7103 50.125 25.002C49.8424 25.2845 49.528 25.5352 49.1816 25.7539C48.8444 25.9635 48.4798 26.1276 48.0879 26.2461C47.7051 26.3646 47.3086 26.4238 46.8984 26.4238C46.388 26.4238 45.9323 26.3372 45.5312 26.1641C45.1393 25.9909 44.8066 25.7539 44.5332 25.4531C44.2689 25.1432 44.0638 24.7832 43.918 24.373C43.7812 23.9538 43.7129 23.498 43.7129 23.0059C43.7129 22.4772 43.7904 21.9759 43.9453 21.502C44.1003 21.028 44.3145 20.5859 44.5879 20.1758C44.8613 19.7565 45.1803 19.3737 45.5449 19.0273C45.9186 18.681 46.3151 18.3711 46.7344 18.0977L46.8984 18.2207C46.4518 18.7493 46.0872 19.3418 45.8047 19.998C45.5312 20.6543 45.3945 21.3379 45.3945 22.0488C45.3945 22.459 45.4401 22.8555 45.5312 23.2383C45.6315 23.612 45.7819 23.9447 45.9824 24.2363C46.1921 24.528 46.4564 24.7604 46.7754 24.9336C47.0944 25.1068 47.4818 25.1934 47.9375 25.1934C48.4753 25.1934 48.9857 25.0794 49.4688 24.8516C49.9609 24.6237 50.403 24.3366 50.7949 23.9902L50.877 24.0449ZM62.0195 24.0449C61.8464 24.373 61.6595 24.6875 61.459 24.9883C61.2676 25.2891 61.0488 25.5534 60.8027 25.7812C60.5566 26.0091 60.2786 26.1914 59.9688 26.3281C59.6589 26.4648 59.3034 26.5332 58.9023 26.5332C58.4466 26.5332 58.0547 26.4193 57.7266 26.1914C57.3984 25.9727 57.1159 25.681 56.8789 25.3164C56.651 24.9427 56.4642 24.5189 56.3184 24.0449C56.1816 23.571 56.0677 23.0879 55.9766 22.5957C55.8854 22.1035 55.8171 21.6204 55.7715 21.1465C55.7259 20.6634 55.6849 20.2305 55.6484 19.8477C55.4753 19.9844 55.2656 20.2487 55.0195 20.6406C54.7734 21.0234 54.5228 21.4746 54.2676 21.9941C54.0124 22.5137 53.7663 23.0788 53.5293 23.6895C53.3014 24.3001 53.1146 24.9017 52.9688 25.4941C52.9414 25.6217 52.8958 25.7539 52.832 25.8906C52.7773 26.0273 52.7044 26.1504 52.6133 26.2598C52.5312 26.3783 52.431 26.474 52.3125 26.5469C52.194 26.6289 52.0618 26.6699 51.916 26.6699C51.679 26.6699 51.5059 26.5879 51.3965 26.4238C51.2962 26.2598 51.2233 26.0729 51.1777 25.8633C50.9134 24.7057 50.7266 23.5983 50.6172 22.541C50.5169 21.4837 50.4668 20.4264 50.4668 19.3691C50.4668 19.1139 50.5078 18.8952 50.5898 18.7129C50.681 18.5215 50.7995 18.3665 50.9453 18.248C51.0911 18.1204 51.2643 18.0293 51.4648 17.9746C51.6654 17.9108 51.875 17.8789 52.0938 17.8789C52.1211 17.8789 52.1621 17.8789 52.2168 17.8789C52.2806 17.8789 52.3398 17.888 52.3945 17.9062C52.4492 17.9154 52.4948 17.9336 52.5312 17.9609C52.5677 17.9883 52.5814 18.0247 52.5723 18.0703C52.3353 19.2643 52.2214 20.4811 52.2305 21.7207C52.2396 22.9512 52.3034 24.1361 52.4219 25.2754C52.5221 24.8197 52.668 24.3047 52.8594 23.7305C53.0599 23.1471 53.2878 22.5638 53.543 21.9805C53.8073 21.388 54.0898 20.8275 54.3906 20.2988C54.7005 19.7611 55.015 19.3099 55.334 18.9453C55.4889 18.7721 55.6439 18.6263 55.7988 18.5078C55.9629 18.3802 56.1634 18.3164 56.4004 18.3164C56.5371 18.3164 56.651 18.3438 56.7422 18.3984C56.8333 18.4531 56.9062 18.5215 56.9609 18.6035C57.0247 18.6855 57.0703 18.7812 57.0977 18.8906C57.1341 18.9909 57.1615 19.0911 57.1797 19.1914C57.2253 19.4557 57.2708 19.7975 57.3164 20.2168C57.362 20.6361 57.4167 21.0827 57.4805 21.5566C57.5534 22.0306 57.64 22.5091 57.7402 22.9922C57.8405 23.4661 57.9681 23.8991 58.123 24.291C58.278 24.6738 58.4648 24.9883 58.6836 25.2344C58.9023 25.4805 59.1621 25.6035 59.4629 25.6035C59.709 25.6035 59.946 25.5579 60.1738 25.4668C60.4108 25.3665 60.6341 25.2435 60.8438 25.0977C61.0534 24.9427 61.2493 24.7695 61.4316 24.5781C61.6139 24.3776 61.778 24.1816 61.9238 23.9902L62.0195 24.0449ZM70.0723 24.0449C69.8353 24.3913 69.5482 24.7148 69.2109 25.0156C68.8828 25.3164 68.5182 25.5762 68.1172 25.7949C67.7253 26.0137 67.3105 26.1868 66.873 26.3145C66.4447 26.4421 66.0117 26.5059 65.5742 26.5059C64.9544 26.5059 64.3757 26.4238 63.8379 26.2598C63.3001 26.1048 62.8307 25.8633 62.4297 25.5352C62.0286 25.207 61.7142 24.7969 61.4863 24.3047C61.2585 23.8034 61.1445 23.2201 61.1445 22.5547C61.1445 21.8984 61.263 21.2878 61.5 20.7227C61.7461 20.1484 62.0788 19.6517 62.498 19.2324C62.9264 18.804 63.4277 18.4668 64.002 18.2207C64.5762 17.9746 65.1914 17.8516 65.8477 17.8516C66.1576 17.8516 66.4447 17.8971 66.709 17.9883C66.9824 18.0703 67.2194 18.1979 67.4199 18.3711C67.6204 18.5352 67.7754 18.7402 67.8848 18.9863C68.0033 19.2324 68.0625 19.515 68.0625 19.834C68.0625 20.2168 67.985 20.554 67.8301 20.8457C67.6751 21.1374 67.4701 21.3926 67.2148 21.6113C66.9596 21.8301 66.668 22.0124 66.3398 22.1582C66.0208 22.304 65.6836 22.4225 65.3281 22.5137C64.9818 22.6048 64.6354 22.6732 64.2891 22.7188C63.9518 22.7552 63.6419 22.7734 63.3594 22.7734H63.0312C63.1497 23.6029 63.4779 24.2363 64.0156 24.6738C64.5534 25.1113 65.2962 25.3301 66.2441 25.3301C66.9186 25.3301 67.5749 25.2116 68.2129 24.9746C68.86 24.7376 69.4434 24.4095 69.9629 23.9902L70.0723 24.0449ZM62.9902 22.3633H63.332C63.6602 22.3633 63.9974 22.3132 64.3438 22.2129C64.6901 22.1035 65 21.9486 65.2734 21.748C65.556 21.5384 65.7884 21.2832 65.9707 20.9824C66.153 20.6816 66.2441 20.3398 66.2441 19.957C66.2441 19.5833 66.1621 19.2734 65.998 19.0273C65.8431 18.7812 65.5697 18.6582 65.1777 18.6582C64.7767 18.6582 64.4349 18.7812 64.1523 19.0273C63.8789 19.2643 63.6556 19.5605 63.4824 19.916C63.3092 20.2624 63.1816 20.6315 63.0996 21.0234C63.0267 21.4062 62.9902 21.748 62.9902 22.0488V22.3633Z" fill="#111213"/>
    </symbol>

    <symbol id="logo-inactive" viewBox="0 0 30 29">
        <path d="M29.114 14.0698L25.109 12.6202C23.5166 12.0404 21.7795 12.1854 20.2354 12.9101C18.6913 13.6832 17.5815 14.9878 17.0507 16.6306L15.9892 19.9646L14.9759 20.786V13.8282C14.9759 12.9101 15.4584 12.0404 16.2304 11.5089C16.2787 11.5089 16.2787 11.4606 16.327 11.4606C18.2571 9.52788 19.2704 6.82208 19.1256 4.11628L18.8361 0.444119C18.8361 0.202529 18.6431 0.00925779 18.4018 0.00925779C18.1606 -0.0390601 17.9676 0.105894 17.871 0.347483L16.327 4.74441C15.7479 6.38722 15.4584 8.07835 15.4584 9.81779V10.9291C14.5416 11.6539 14.0108 12.7169 14.0108 13.8765V14.8429L13.5283 14.3597C13.4318 10.7842 11.1156 7.59517 7.68968 6.48386L4.50499 5.42086C4.36023 5.37255 4.16722 5.42086 4.02246 5.5175C3.8777 5.61413 3.82945 5.80741 3.8777 6.00068L4.40849 8.41657C5.27704 12.2337 8.703 14.9878 12.7562 14.9878H12.8527L14.0108 16.1474V26.7774L13.0458 26.2942V25.2795C13.0458 22.9119 11.9359 20.641 10.0058 19.2398C8.02745 17.7419 5.4218 17.3071 3.10566 18.1285L0.83777 18.9016C0.644759 18.9499 0.5 19.1431 0.5 19.3364C0.5 19.5297 0.644759 19.723 0.83777 19.7713L1.36855 19.9646C3.82945 20.786 6.14559 22.0422 8.17221 23.685L12.2737 26.9706C12.322 26.9706 12.322 27.019 12.3702 27.019L14.0108 27.8404V29H14.9759V21.9939L16.713 20.6893C16.713 20.6893 16.7612 20.6893 16.7612 20.641C19.8012 17.597 23.8062 15.6159 28.1007 15.0844L29.0657 14.9878C29.307 14.9395 29.4517 14.7945 29.5 14.5529C29.4517 14.3114 29.3552 14.1181 29.114 14.0698Z" fill="#BAC2BB"/>
    </symbol>
    
    <symbol id="cart-icon" viewBox="0 0 32 32">
        <path d="M12 29c0 1.657-1.343 3-3 3s-3-1.343-3-3c0-1.657 1.343-3 3-3s3 1.343 3 3z" fill="#446E61" />
        <path d="M32 29c0 1.657-1.343 3-3 3s-3-1.343-3-3c0-1.657 1.343-3 3-3s3 1.343 3 3z" fill="#446E61" />
        <path d="M32 16v-12h-24c0-1.105-0.895-2-2-2h-6v2h4l1.502 12.877c-0.915 0.733-1.502 1.859-1.502 3.123 0 2.209 1.791 4 4 4h24v-2h-24c-1.105 0-2-0.895-2-2 0-0.007 0-0.014 0-0.020l26-3.98z" fill="#446E61" />
    </symbol>

    <symbol id="cart-icon-active" viewBox="0 0 32 32">
        <path d="M12 29c0 1.657-1.343 3-3 3s-3-1.343-3-3c0-1.657 1.343-3 3-3s3 1.343 3 3z" fill="#67446E" />
        <path d="M32 29c0 1.657-1.343 3-3 3s-3-1.343-3-3c0-1.657 1.343-3 3-3s3 1.343 3 3z" fill="#67446E" />
        <path d="M32 16v-12h-24c0-1.105-0.895-2-2-2h-6v2h4l1.502 12.877c-0.915 0.733-1.502 1.859-1.502 3.123 0 2.209 1.791 4 4 4h24v-2h-24c-1.105 0-2-0.895-2-2 0-0.007 0-0.014 0-0.020l26-3.98z" fill="#67446E" />
    </symbol>

    <symbol id="search-icon" viewBox="0 0 32 32">
        <path d="M31.008 27.231l-7.58-6.447c-0.784-0.705-1.622-1.029-2.299-0.998 1.789-2.096 2.87-4.815 2.87-7.787 0-6.627-5.373-12-12-12s-12 5.373-12 12 5.373 12 12 12c2.972 0 5.691-1.081 7.787-2.87-0.031 0.677 0.293 1.515 0.998 2.299l6.447 7.58c1.104 1.226 2.907 1.33 4.007 0.23s0.997-2.903-0.23-4.007zM12 20c-4.418 0-8-3.582-8-8s3.582-8 8-8 8 3.582 8 8-3.582 8-8 8z" fill="#446E61" />
    </symbol>

    <symbol id="search-icon-active" viewBox="0 0 32 32">
        <path d="M31.008 27.231l-7.58-6.447c-0.784-0.705-1.622-1.029-2.299-0.998 1.789-2.096 2.87-4.815 2.87-7.787 0-6.627-5.373-12-12-12s-12 5.373-12 12 5.373 12 12 12c2.972 0 5.691-1.081 7.787-2.87-0.031 0.677 0.293 1.515 0.998 2.299l6.447 7.58c1.104 1.226 2.907 1.33 4.007 0.23s0.997-2.903-0.23-4.007zM12 20c-4.418 0-8-3.582-8-8s3.582-8 8-8 8 3.582 8 8-3.582 8-8 8z" fill="#67446E" />
    </symbol>

    <symbol id="search-icon-secondary" viewBox="0 0 32 32">
        <path d="M31.008 27.231l-7.58-6.447c-0.784-0.705-1.622-1.029-2.299-0.998 1.789-2.096 2.87-4.815 2.87-7.787 0-6.627-5.373-12-12-12s-12 5.373-12 12 5.373 12 12 12c2.972 0 5.691-1.081 7.787-2.87-0.031 0.677 0.293 1.515 0.998 2.299l6.447 7.58c1.104 1.226 2.907 1.33 4.007 0.23s0.997-2.903-0.23-4.007zM12 20c-4.418 0-8-3.582-8-8s3.582-8 8-8 8 3.582 8 8-3.582 8-8 8z" fill="#727173" />
    </symbol>

    <symbol id="arrow-icon" viewBox="0 0 32 32">
        <path d="M12.586 27.414l-10-10c-0.781-0.781-0.781-2.047 0-2.828l10-10c0.781-0.781 2.047-0.781 2.828 0s0.781 2.047 0 2.828l-6.586 6.586h19.172c1.105 0 2 0.895 2 2s-0.895 2-2 2h-19.172l6.586 6.586c0.39 0.39 0.586 0.902 0.586 1.414s-0.195 1.024-0.586 1.414c-0.781 0.781-2.047 0.781-2.828 0z" fill="#446E61" />
    </symbol>

    <symbol id="arrow-icon-active" viewBox="0 0 32 32">
        <path d="M12.586 27.414l-10-10c-0.781-0.781-0.781-2.047 0-2.828l10-10c0.781-0.781 2.047-0.781 2.828 0s0.781 2.047 0 2.828l-6.586 6.586h19.172c1.105 0 2 0.895 2 2s-0.895 2-2 2h-19.172l6.586 6.586c0.39 0.39 0.586 0.902 0.586 1.414s-0.195 1.024-0.586 1.414c-0.781 0.781-2.047 0.781-2.828 0z" fill="#67446E" />
    </symbol>
</svg>
